<svg width="150" height="87" viewBox="0 0 150 87" fill="none" xmlns="http://www.w3.org/2000/svg">
<rect y="15" width="150" height="72" rx="12" fill="#BBFD3B"/>
<path d="M134.061 28.4653C134.061 34.0602 130.566 38.8389 125.641 40.7384H120.911H116.181C111.256 38.8389 107.762 34.0602 107.762 28.4653C107.762 21.2031 113.649 15.3159 120.911 15.3159C128.173 15.3159 134.061 21.2031 134.061 28.4653Z" fill="white" stroke="#00000E" stroke-width="3.28736" stroke-linecap="round" stroke-linejoin="round"/>
<path d="M134.06 28.465C134.06 34.0598 130.566 38.8386 125.641 40.738H120.91H116.18C111.255 38.8386 110.227 38.9908 110.227 33.396C113.514 34.2178 112.826 35.0397 120.089 35.0397C127.351 35.0397 134.06 21.2027 134.06 28.465Z" fill="#BBFD3B"/>
<path d="M134.061 28.4653C134.061 34.0602 130.566 38.8389 125.641 40.7384H120.911H116.181C111.256 38.8389 107.762 34.0602 107.762 28.4653C107.762 21.2031 113.649 15.3159 120.911 15.3159C128.173 15.3159 134.061 21.2031 134.061 28.4653Z" stroke="#00000E" stroke-width="3.28736" stroke-linecap="round" stroke-linejoin="round"/>
<path d="M125.64 42.3823L125.082 49.0799C125.046 49.5059 124.69 49.8334 124.263 49.8334H117.557C117.129 49.8334 116.773 49.5059 116.738 49.0799L116.18 42.3823" fill="#BBFD3B"/>
<path d="M125.64 42.3823L125.082 49.0799C125.046 49.5059 124.69 49.8334 124.263 49.8334H117.557C117.129 49.8334 116.773 49.5059 116.738 49.0799L116.18 42.3823" stroke="#00000E" stroke-width="3.28736" stroke-linecap="round" stroke-linejoin="round"/>
<path d="M115.979 26V30.931L120.91 28.4655L125.841 30.931V26" stroke="#00000E" stroke-width="3.28736" stroke-linecap="round" stroke-linejoin="round"/>
<rect x="100.664" y="9.42188" width="3.28736" height="9.86207" rx="1.64368" transform="rotate(-45 100.664 9.42188)" fill="#00000E"/>
<rect width="3.28736" height="9.86207" rx="1.64368" transform="matrix(-0.707107 -0.707107 -0.707107 0.707107 140.594 9.42188)" fill="#00000E"/>
<rect width="3.28736" height="9.86207" rx="1.64368" transform="matrix(-1 8.74228e-08 8.74228e-08 1 122.553 2.1665)" fill="#00000E"/>
</svg>
