<svg width="150" height="89" viewBox="0 0 150 89" fill="none" xmlns="http://www.w3.org/2000/svg">
<rect y="17" width="150" height="72" rx="12" fill="#74FFBB"/>
<path d="M118.706 9.37256C105.08 9.37256 99.4698 23.5222 99.144 31.0406C99.126 31.4569 99.3729 31.8393 99.7513 32.0137C116.584 39.769 131.037 34.9941 137.313 32.0142C137.684 31.8381 137.918 31.4632 137.902 31.053C137.608 23.4089 132.348 9.37256 118.706 9.37256Z" fill="white"/>
<path d="M127.267 6.74431C133.891 9.35426 138.373 13.721 137.278 16.498C136.184 19.2751 129.928 19.4102 123.305 16.8003C116.682 14.1903 112.2 9.82355 113.294 7.04653C114.388 4.26951 120.645 4.13442 127.267 6.74431ZM126.832 7.84077C122.641 6.18915 118.548 6.61412 117.69 8.7905C116.833 10.9669 119.535 14.0698 123.727 15.7216C127.918 17.3734 132.012 16.9487 132.87 14.7723C133.727 12.5958 131.024 9.49254 126.832 7.84077Z" fill="url(#paint0_linear_15118_66019)"/>
<ellipse cx="103.381" cy="39.8656" rx="4.83029" ry="4.75819" fill="#30CFAA" stroke="#182A48" stroke-width="1.47792"/>
<ellipse cx="133.084" cy="39.8656" rx="4.83029" ry="4.75819" fill="#30CFAA" stroke="#182A48" stroke-width="1.47792"/>
<ellipse cx="118.233" cy="41.7411" rx="4.83029" ry="4.75819" fill="#30CFAA" stroke="#182A48" stroke-width="1.47792"/>
<path d="M98.8941 31.0539C103.998 35.1921 114.178 36.2266 118.63 36.2266C129.876 36.2266 136.161 32.7782 137.897 31.0539V29.1434C144.53 28.235 146.368 30.7235 146.458 32.0813C146.718 36.7385 139.717 39.3327 136.185 40.0476C122.198 42.8782 106.584 41.9161 100.624 40.0476C96.7734 38.774 89.2372 35.3327 89.9004 31.7568C90.5637 28.181 96.1726 28.1401 98.8941 28.5667V31.0539Z" fill="url(#paint1_linear_15118_66019)"/>
<path d="M91.5799 30.2046C90.7148 41.5954 122.908 40.2689 134.746 39.5047C121.607 44.5513 83.2314 39.9517 91.5799 30.2046Z" fill="white" fill-opacity="0.55"/>
<path d="M118.403 12.9053C106.472 12.9053 101.531 25.2465 101.208 31.8781C101.188 32.2942 101.435 32.6758 101.814 32.8495C116.517 39.5916 129.146 35.467 134.691 32.8491C135.063 32.6738 135.295 32.2993 135.277 31.8892C134.984 25.1496 130.349 12.9053 118.403 12.9053Z" fill="url(#paint2_linear_15118_66019)"/>
<ellipse cx="112.009" cy="16.5648" rx="5.16797" ry="2.00155" transform="rotate(-26.4608 112.009 16.5648)" fill="#90FF99"/>
<path d="M118.425 9.37256C104.799 9.37256 99.1885 23.5222 98.8628 31.0406C98.8448 31.4569 99.0917 31.8393 99.4701 32.0137C116.302 39.769 130.756 34.9941 137.032 32.0142C137.403 31.8381 137.637 31.4632 137.621 31.053C137.327 23.4089 132.067 9.37256 118.425 9.37256Z" stroke="#182A48" stroke-width="2.12677"/>
<path d="M93.4463 27.8203C95.4552 27.3778 97.7199 27.5094 99.2188 27.7568L100.053 27.8945L99.8994 28.7246L99.5039 30.8799C99.4646 31.0941 99.5771 31.3025 99.7676 31.3857C102.043 32.377 103.904 33.0714 106.194 33.6777C110.167 34.7296 114.617 35.3604 118.159 35.498C118.18 35.4989 118.2 35.5006 118.221 35.5029H118.222C121.766 35.4474 126.229 34.9203 130.225 33.9609C132.535 33.4062 134.417 32.7525 136.724 31.8096C136.913 31.7322 137.031 31.5331 137.002 31.3213L136.702 29.1328L136.59 28.3154L137.407 28.2002C138.911 27.9875 141.163 27.9084 143.145 28.3994C145.048 28.8712 146.962 29.9517 147.396 32.2002L147.435 32.4219L147.438 32.4443L147.439 32.4658C147.601 34.2301 146.393 36.7284 142.241 38.7979C138.083 40.8703 130.805 42.6218 118.322 42.9131C118.242 42.915 118.164 42.9045 118.09 42.8848C106.049 42.6093 98.7812 40.7136 94.5215 38.4902C90.2541 36.2628 88.8124 33.5767 89.0186 31.7832L89.0215 31.7617L89.0254 31.7393L89.0684 31.5195C89.5566 29.2768 91.52 28.2449 93.4463 27.8203ZM98.1123 29.2822C96.8205 29.1445 95.2111 29.1301 93.8027 29.4404C92.06 29.8245 90.9097 30.6212 90.666 31.9902C90.5902 32.7686 91.2741 34.9263 95.2881 37.0215C99.284 39.1072 106.398 41.0051 118.6 41.2383C118.629 41.2388 118.659 41.2405 118.688 41.2441C130.82 40.9271 137.704 39.2061 141.501 37.3135C145.32 35.4101 145.854 33.4417 145.789 32.6328C145.576 31.2539 144.455 30.4334 142.745 30.0098C141.354 29.6651 139.753 29.6429 138.46 29.752L138.645 31.0967C138.775 32.0486 138.25 32.9775 137.352 33.3447C134.99 34.3098 133.026 34.9925 130.611 35.5723C126.496 36.5604 121.912 37.1037 118.247 37.1611C118.208 37.1617 118.169 37.158 118.131 37.1533C118.119 37.1534 118.107 37.1547 118.096 37.1543C114.433 37.012 109.862 36.3626 105.771 35.2793C103.378 34.6457 101.434 33.9199 99.1055 32.9053C98.1998 32.5104 97.6968 31.5441 97.873 30.582L98.1123 29.2822Z" fill="#182A48"/>
<rect x="105.111" y="18.708" width="11.9315" height="8.14661" rx="4.0733" fill="white" stroke="#182A48" stroke-width="1.44188"/>
<rect x="120.035" y="18.708" width="11.9315" height="8.14661" rx="4.0733" fill="white" stroke="#182A48" stroke-width="1.44188"/>
<circle cx="108.404" cy="22.7808" r="3.46051" fill="#182A48"/>
<circle cx="123.759" cy="22.7808" r="3.46051" fill="#182A48"/>
<circle cx="122.309" cy="21.1233" r="1.11746" fill="white"/>
<circle cx="107.061" cy="21.1233" r="1.11746" fill="white"/>
<path d="M116.863 31.8998C118.93 32.4886 123.618 32.8154 125.839 29.4126" stroke="#182A48" stroke-width="1.73025" stroke-linecap="round"/>
<path d="M104.672 55.0159C104.672 56.4098 108.099 57.5397 118.553 57.5397C129.007 57.5397 132.434 56.4098 132.434 55.0159C132.434 53.6221 129.007 52.4922 118.553 52.4922C108.099 52.4922 104.672 53.6221 104.672 55.0159Z" fill="#00000E"/>
<defs>
<linearGradient id="paint0_linear_15118_66019" x1="127.267" y1="6.74431" x2="123.305" y2="16.8003" gradientUnits="userSpaceOnUse">
<stop offset="0.175406" stop-color="#3DC4D6"/>
<stop offset="0.654925" stop-color="#30CFAA" stop-opacity="0.42"/>
<stop offset="1" stop-color="#186956" stop-opacity="0"/>
</linearGradient>
<linearGradient id="paint1_linear_15118_66019" x1="89.8594" y1="35.453" x2="146.465" y2="35.453" gradientUnits="userSpaceOnUse">
<stop stop-color="#EBEBEB"/>
<stop offset="0.391757" stop-color="#58EDD9"/>
<stop offset="0.528846" stop-color="#3FB6C8"/>
<stop offset="0.649038" stop-color="#2FB7A5"/>
<stop offset="0.824519" stop-color="#178E62"/>
<stop offset="1" stop-color="#1D8D60"/>
</linearGradient>
<linearGradient id="paint2_linear_15118_66019" x1="112.204" y1="17.2489" x2="122.711" y2="35.2003" gradientUnits="userSpaceOnUse">
<stop stop-color="#77E297"/>
<stop offset="0.423077" stop-color="#4FE7A0"/>
<stop offset="0.846154" stop-color="#30D3BD"/>
</linearGradient>
</defs>
</svg>
