<svg width="188" height="72" viewBox="0 0 188 72" fill="none" xmlns="http://www.w3.org/2000/svg">
<rect width="188" height="72" rx="12" fill="#8AFF80"/>
<path d="M158.151 7.42773C150.224 7.42773 146.96 15.6592 146.771 20.033C146.76 20.2752 146.904 20.4977 147.124 20.5991C156.916 25.1107 165.324 22.3329 168.975 20.5994C169.191 20.497 169.327 20.2789 169.318 20.0402C169.147 15.5933 166.087 7.42773 158.151 7.42773Z" fill="white"/>
<path d="M163.129 5.89928C166.982 7.41754 169.589 9.95748 168.953 11.573C168.316 13.1884 164.677 13.2676 160.824 11.7495C156.971 10.2312 154.363 7.69009 155 6.07456C155.637 4.45929 159.276 4.38104 163.129 5.89928ZM162.877 6.53673C160.439 5.576 158.058 5.82325 157.559 7.08932C157.06 8.3554 158.632 10.1604 161.07 11.1213C163.509 12.0822 165.89 11.8352 166.389 10.5691C166.888 9.30296 165.315 7.49764 162.877 6.53673Z" fill="url(#paint0_linear_15118_65979)"/>
<ellipse cx="149.236" cy="25.168" rx="2.81" ry="2.76806" fill="#74FFBB" stroke="#182A48" stroke-width="0.859775"/>
<ellipse cx="166.515" cy="25.168" rx="2.81" ry="2.76806" fill="#74FFBB" stroke="#182A48" stroke-width="0.859775"/>
<ellipse cx="157.874" cy="26.2583" rx="2.81" ry="2.76806" fill="#74FFBB" stroke="#182A48" stroke-width="0.859775"/>
<path d="M146.625 20.042C149.594 22.4493 155.516 23.0512 158.106 23.0512C164.649 23.0512 168.305 21.045 169.315 20.042V18.9306C173.173 18.4021 174.243 19.8498 174.295 20.6396C174.446 23.349 170.374 24.8581 168.319 25.274C160.182 26.9207 151.099 26.361 147.632 25.274C145.391 24.5331 141.007 22.5311 141.393 20.4509C141.779 18.3707 145.042 18.3469 146.625 18.595V20.042Z" fill="url(#paint1_linear_15118_65979)"/>
<path d="M142.371 19.5483C141.867 26.1749 160.596 25.4032 167.482 24.9586C159.839 27.8945 137.514 25.2187 142.371 19.5483Z" fill="white" fill-opacity="0.55"/>
<path d="M157.974 9.48145C151.033 9.48145 148.159 16.6609 147.971 20.5188C147.959 20.7609 148.103 20.9829 148.323 21.0839C156.877 25.0061 164.223 22.6066 167.449 21.0836C167.665 20.9817 167.8 20.7638 167.79 20.5253C167.62 16.6045 164.923 9.48145 157.974 9.48145Z" fill="url(#paint2_linear_15118_65979)"/>
<ellipse cx="154.253" cy="11.6129" rx="3.00644" ry="1.16439" transform="rotate(-26.4608 154.253 11.6129)" fill="#BBFD3B"/>
<path d="M157.987 7.42773C150.06 7.42773 146.796 15.6592 146.606 20.033C146.596 20.2752 146.74 20.4977 146.96 20.5991C156.752 25.1107 165.16 22.3329 168.811 20.5994C169.027 20.497 169.163 20.2789 169.154 20.0402C168.983 15.5933 165.923 7.42773 157.987 7.42773Z" stroke="#182A48" stroke-width="1.23724"/>
<path d="M143.455 18.1587C144.624 17.9012 145.942 17.9786 146.813 18.1226L147.299 18.2017L147.209 18.6851L146.979 19.939C146.957 20.0637 147.023 20.1846 147.134 20.2329C148.457 20.8095 149.54 21.2132 150.872 21.5659C153.183 22.1777 155.771 22.5454 157.832 22.6255C157.846 22.626 157.859 22.6288 157.872 22.6304C159.933 22.5977 162.527 22.2915 164.85 21.7339C166.194 21.4111 167.289 21.0305 168.631 20.4819C168.741 20.4369 168.81 20.321 168.793 20.1978L168.618 18.9243L168.554 18.4497L169.029 18.3813C169.904 18.2577 171.213 18.2131 172.365 18.4985C173.437 18.7641 174.515 19.3614 174.812 20.5854L174.861 20.8384L174.863 20.8511L174.864 20.8638C174.958 21.8901 174.256 23.3435 171.841 24.5474C169.422 25.753 165.187 26.7724 157.926 26.9419C157.875 26.9431 157.826 26.9342 157.779 26.9204C150.782 26.7592 146.557 25.6594 144.08 24.3667C141.598 23.0709 140.76 21.5077 140.88 20.4644L140.883 20.439L140.938 20.187C141.266 18.968 142.371 18.3977 143.455 18.1587ZM146.17 19.0093C145.418 18.9292 144.482 18.9206 143.663 19.1011C142.647 19.3249 141.977 19.7901 141.837 20.5894C141.796 21.046 142.199 22.2965 144.526 23.5112C146.851 24.7246 150.99 25.8297 158.088 25.9653C158.103 25.9656 158.117 25.9686 158.132 25.9702C165.194 25.7862 169.201 24.7864 171.411 23.6851C173.632 22.578 173.942 21.4321 173.904 20.9614C173.781 20.1591 173.128 19.6816 172.134 19.4351C171.324 19.2346 170.393 19.2212 169.641 19.2847L169.748 20.0679C169.824 20.6215 169.518 21.1619 168.996 21.3755C167.623 21.9368 166.48 22.3341 165.075 22.6714C162.682 23.2462 160.015 23.5618 157.883 23.5952C157.857 23.5956 157.832 23.5918 157.808 23.5884C157.803 23.5883 157.799 23.5895 157.795 23.5894C155.664 23.5066 153.004 23.1288 150.624 22.4985C149.232 22.13 148.102 21.7068 146.748 21.1167C146.221 20.8869 145.929 20.3249 146.031 19.7651L146.17 19.0093Z" fill="#182A48"/>
<circle cx="153.776" cy="15.0086" r="2.8108" fill="#182A48" stroke="white" stroke-width="0.987209"/>
<path d="M153.749 13.3228C153.749 13.3374 153.75 13.3524 153.749 13.3677C153.774 14.7357 154.906 15.1421 155.408 15.1738C154.3 15.1738 153.795 16.1884 153.749 16.6957C153.749 15.4781 152.684 15.176 152.097 15.173C152.076 15.1735 152.056 15.1738 152.035 15.1738C152.055 15.1731 152.076 15.1729 152.097 15.173C153.416 15.1383 153.747 13.9881 153.749 13.3677C153.749 13.3528 153.749 13.3378 153.749 13.3228Z" fill="#DCDCDC"/>
<circle cx="162.143" cy="15.0086" r="2.8108" fill="#182A48" stroke="white" stroke-width="0.987209"/>
<path d="M162.116 13.3228C162.117 13.3374 162.117 13.3524 162.117 13.3677C162.141 14.7357 163.273 15.1421 163.775 15.1738C162.667 15.1738 162.162 16.1884 162.116 16.6957C162.116 15.4781 161.052 15.176 160.464 15.173C160.444 15.1735 160.423 15.1738 160.402 15.1738C160.422 15.1731 160.443 15.1729 160.464 15.173C161.783 15.1383 162.114 13.9881 162.117 13.3677C162.116 13.3528 162.116 13.3378 162.116 13.3228Z" fill="#DCDCDC"/>
<path d="M158.833 17.5254H157.06C156.533 17.5254 156.151 18.029 156.293 18.5371L157.179 21.7023C157.23 21.8827 157.342 22.0395 157.497 22.1452L157.595 22.2123C157.879 22.4063 158.255 22.3965 158.528 22.1881L158.571 22.1553C158.718 22.043 158.822 21.8829 158.864 21.7025L159.609 18.503C159.725 18.0033 159.346 17.5254 158.833 17.5254Z" fill="#2B1848"/>
<path d="M158.714 21.2454C158.714 21.6867 158.42 21.9386 158.035 21.9386C157.649 21.9386 157.393 21.6867 157.393 21.2454C157.393 20.8041 157.668 20.8274 158.053 20.8274C158.439 20.8274 158.714 20.8041 158.714 21.2454Z" fill="#DE7676"/>
<path d="M149.655 32.9292C149.655 33.7876 151.765 34.4835 158.203 34.4835C164.641 34.4835 166.752 33.7876 166.752 32.9292C166.752 32.0709 164.641 31.375 158.203 31.375C151.765 31.375 149.655 32.0709 149.655 32.9292Z" fill="#00000E"/>
<defs>
<linearGradient id="paint0_linear_15118_65979" x1="163.129" y1="5.8991" x2="160.823" y2="11.7493" gradientUnits="userSpaceOnUse">
<stop offset="0.175406" stop-color="#57D63D"/>
<stop offset="0.654925" stop-color="#30CF36" stop-opacity="0.42"/>
<stop offset="1" stop-color="#186956" stop-opacity="0"/>
</linearGradient>
<linearGradient id="paint1_linear_15118_65979" x1="141.369" y1="22.6011" x2="174.299" y2="22.6011" gradientUnits="userSpaceOnUse">
<stop stop-color="#EBEBEB"/>
<stop offset="0.391757" stop-color="#58ED91"/>
<stop offset="0.528846" stop-color="#39A268"/>
<stop offset="0.649038" stop-color="#2FB78C"/>
<stop offset="0.824519" stop-color="#00C261"/>
<stop offset="1" stop-color="#89E9B4"/>
</linearGradient>
<linearGradient id="paint2_linear_15118_65979" x1="154.367" y1="12.0083" x2="160.48" y2="22.4515" gradientUnits="userSpaceOnUse">
<stop stop-color="#77E27B"/>
<stop offset="0.423077" stop-color="#6EE74F"/>
<stop offset="0.846154" stop-color="#22E31C"/>
</linearGradient>
</defs>
</svg>
