<svg width="310" height="72" viewBox="0 0 310 72" fill="none" xmlns="http://www.w3.org/2000/svg">
<rect width="310" height="72" rx="12" fill="#41FAF4"/>
<path d="M257.875 47.375L257.875 23C257.875 21.2051 259.33 19.75 261.125 19.75L295.25 19.75C297.045 19.75 298.5 21.2051 298.5 23L298.5 47.375C298.5 49.1699 297.045 50.625 295.25 50.625L261.125 50.625C259.33 50.625 257.875 49.1699 257.875 47.375Z" fill="white" stroke="#00000E" stroke-width="3.25"/>
<path d="M275.435 24.4935C275.753 23.0584 276.165 22.1875 276.618 22.1875C277.111 22.1875 277.558 23.2222 277.884 24.8968C279.227 25.2092 280.034 25.6087 280.034 26.0447C280.034 26.4442 279.354 26.8139 278.205 27.1128C278.345 28.4579 278.426 30.0665 278.426 34.8916C278.426 36.4666 278.352 41.2016 278.221 42.5084C279.361 42.8073 280.034 43.1752 280.034 43.5728C280.034 44.0048 279.24 44.4015 277.917 44.7128C277.588 46.49 277.127 47.5966 276.618 47.5966C276.149 47.5966 275.721 46.6615 275.4 45.1287C273.989 45.2896 272.416 45.3816 270.58 45.3816C268.744 45.3816 267.033 45.2819 265.583 45.1085C265.261 46.6529 264.832 47.5966 264.36 47.5966C263.846 47.5966 263.382 46.4709 263.053 44.6669C261.844 44.3632 261.125 43.9838 261.125 43.5728C261.125 43.1963 261.729 42.8456 262.761 42.5563C262.628 41.238 262.552 36.5519 262.552 34.8916C262.552 29.9813 262.635 28.4225 262.779 27.0659C261.736 26.7756 261.125 26.424 261.125 26.0447C261.125 25.6298 261.857 25.2475 263.085 24.9429C263.413 23.2404 263.863 22.1875 264.361 22.1875C264.815 22.1875 265.23 23.067 265.548 24.5146C267.005 24.3383 268.805 24.2367 270.58 24.2367C272.355 24.2367 274.016 24.3307 275.435 24.4935Z" fill="#BBFD3B"/>
<path d="M280.024 43.6532C279.932 44.0539 279.157 44.4209 277.917 44.7128C277.588 46.49 277.127 47.5966 276.618 47.5966L276.53 47.5858C276.096 47.4776 275.701 46.5656 275.4 45.1287C273.989 45.2896 272.416 45.3816 270.58 45.3816L270.58 42.9443C272.333 42.9443 273.814 42.8564 275.124 42.707L275.759 42.6337L275.796 42.2665C275.912 41.1041 275.988 36.4986 275.988 34.8916C275.988 30.0745 275.906 28.5747 275.78 27.3652L275.74 26.9814L275.157 26.915C273.84 26.764 272.273 26.6738 270.58 26.6738C268.887 26.6738 267.186 26.7718 265.841 26.9346L265.235 27.0068L265.202 27.3222C265.073 28.5413 264.99 29.9901 264.99 34.8916C264.99 36.5829 265.068 41.139 265.187 42.3115L265.216 42.6093L265.872 42.6884C267.214 42.8488 268.828 42.9443 270.58 42.9443L270.58 45.3816L269.897 45.3769C268.321 45.3554 266.852 45.2602 265.583 45.1085C265.261 46.6529 264.832 47.5966 264.36 47.5966L264.265 47.5839C263.788 47.454 263.362 46.3584 263.053 44.6669C261.844 44.3632 261.125 43.9838 261.125 43.5728C261.125 43.1963 261.729 42.8456 262.761 42.5563C262.661 41.5676 262.594 38.6846 262.566 36.6044L262.552 34.8916C262.552 29.9813 262.635 28.4225 262.779 27.0659C261.736 26.7756 261.125 26.424 261.125 26.0447C261.125 25.6298 261.857 25.2475 263.085 24.9429C263.413 23.2404 263.863 22.1875 264.361 22.1875C264.815 22.1875 265.23 23.067 265.548 24.5146C267.005 24.3383 268.805 24.2367 270.58 24.2367L271.24 24.2412C272.767 24.2614 274.193 24.351 275.435 24.4935C275.753 23.0584 276.165 22.1875 276.618 22.1875C277.111 22.1875 277.558 23.2222 277.884 24.8968C279.227 25.2092 280.034 25.6087 280.034 26.0447L280.026 26.1191C279.947 26.4901 279.282 26.8326 278.205 27.1128C278.345 28.4579 278.426 30.0665 278.426 34.8916L278.412 36.5625C278.385 38.6199 278.319 41.5283 278.221 42.5084C279.361 42.8073 280.034 43.1752 280.034 43.5728L280.024 43.6532Z" fill="#00000E"/>
<path d="M294.438 42.9062C294.438 42.2332 293.892 41.6875 293.219 41.6875H283.469C282.796 41.6875 282.25 42.2332 282.25 42.9062C282.25 43.5793 282.796 44.125 283.469 44.125H293.219C293.892 44.125 294.438 43.5793 294.438 42.9062Z" fill="#00000E"/>
<path d="M294.438 38.0312C294.438 37.3582 293.892 36.8125 293.219 36.8125H285.906C285.233 36.8125 284.688 37.3582 284.688 38.0312C284.688 38.7043 285.233 39.25 285.906 39.25H293.219C293.892 39.25 294.438 38.7043 294.438 38.0312Z" fill="#00000E"/>
<path d="M294.438 33.1562C294.438 32.4832 293.892 31.9375 293.219 31.9375H287.531C286.858 31.9375 286.312 32.4832 286.312 33.1562C286.312 33.8293 286.858 34.375 287.531 34.375H293.219C293.892 34.375 294.438 33.8293 294.438 33.1562Z" fill="#00000E"/>
</svg>
