<svg width="310" height="72" viewBox="0 0 310 72" fill="none" xmlns="http://www.w3.org/2000/svg">
<path d="M232.821 17.1445C234.696 24.1378 241.034 29 248.274 29H298C304.627 29 310 34.3726 310 41V60C310 66.6274 304.627 72 298 72H12C5.37259 72 0 66.6274 0 60V12C0 5.37258 5.37258 0 12 0H219.017C224.447 0 229.201 3.64668 230.607 8.89163L232.821 17.1445Z" fill="#FF74A7"/>
<path d="M280.418 57.3552C280.639 52.9819 282.76 48.8389 287.366 48.8389C291.972 48.8389 294.093 52.9819 294.314 57.3552C294.336 57.7823 293.987 58.1292 293.56 58.1292H281.173C280.745 58.1292 280.396 57.7823 280.418 57.3552Z" fill="white" stroke="#00000E" stroke-width="1.74194"/>
<circle cx="287.367" cy="43.4193" r="3" fill="white" stroke="#00000E" stroke-width="1.74194"/>
<path d="M270.356 59.6776C270.602 55.3042 272.958 51.1611 278.076 51.1611C283.194 51.1611 285.55 55.3042 285.796 59.6776C285.82 60.1045 285.471 60.4515 285.044 60.4515H271.108C270.681 60.4515 270.332 60.1045 270.356 59.6776Z" fill="#BBFD3B" stroke="#00000E" stroke-width="2"/>
<circle cx="278.077" cy="44.9679" r="3.64516" fill="white" stroke="#00000E" stroke-width="2" stroke-linecap="round"/>
</svg>
